@startuml
'https://plantuml.com/class-diagram

' ========================== GENERAL =========================

class GeneralUploadWizard {
    +void upload_problem()

    -void upload_statement()
    -void assemble_problem_data()
}

class ProblemDataUploadWizard {
    -void form_programming_language_data()
    -void choose_and_run_protocol_assembler()
}
GeneralUploadWizard "1   " <|--- "1" ProblemDataUploadWizard

' ========================== PROTOCOLS =========================

abstract class ProtocolUploadWizard {
    +{abstract} assemble()
}
ProblemDataUploadWizard "1" <--- "4" ProtocolUploadWizard

' ========================== INCOMPLETE ASSEMBLERS =========================

abstract class InputFilesUploadWizard {
    #void upload_inputs()
}

abstract class CorrectOutputFilesUploadWizard {
    #void upload_random_input_generator()
}

abstract class CustomCheckerUploadWizard {
    #{static} void upload_custom_checker()
}

abstract class RandomInputUploadWizard {
    #{static} void upload_random_input_generator()
}

ProtocolUploadWizard <|-- InputFilesUploadWizard
ProtocolUploadWizard <|-- CorrectOutputFilesUploadWizard
ProtocolUploadWizard <|-- CustomCheckerUploadWizard
ProtocolUploadWizard <|-- RandomInputUploadWizard

' ========================== COMPLETE ASSEMBLERS =========================


class InputOutputUploadWizard
InputFilesUploadWizard <|-- InputOutputUploadWizard
CorrectOutputFilesUploadWizard <|-- InputOutputUploadWizard

class InputCustomCheckerUploadWizard
InputFilesUploadWizard <|-- InputCustomCheckerUploadWizard
CustomCheckerUploadWizard <|-- InputCustomCheckerUploadWizard

class RandomInputCustomCheckerUploadWizard
RandomInputUploadWizard <|-- RandomInputCustomCheckerUploadWizard
CustomCheckerUploadWizard <|-- RandomInputCustomCheckerUploadWizard

class LimitedWorkSpaceUploadWizard {
    -{static} void upload_header()
    -{static} void upload_footer()
}
ProtocolUploadWizard <|-- LimitedWorkSpaceUploadWizard

' ========================== CUSTODIAN =========================


class DataCustodian {

}

'TestingProtocols "1" <-- "+1 programming_language_data" ProgrammingLanguageData

@enduml